<svg width="30" height="30" viewBox="0 0 30 30" fill="none" xmlns="http://www.w3.org/2000/svg">
<path d="M27 0H3C1.35 0 0.015 1.35 0.015 3L0 18C0 19.65 1.35 21 3 21H27C28.65 21 30 19.65 30 18V3C30 1.35 28.65 0 27 0ZM13.5 4.5H16.5V7.5H13.5V4.5ZM13.5 9H16.5V12H13.5V9ZM9 4.5H12V7.5H9V4.5ZM9 9H12V12H9V9ZM7.5 12H4.5V9H7.5V12ZM7.5 7.5H4.5V4.5H7.5V7.5ZM21 18H9V15H21V18ZM21 12H18V9H21V12ZM21 7.5H18V4.5H21V7.5ZM25.5 12H22.5V9H25.5V12ZM25.5 7.5H22.5V4.5H25.5V7.5ZM15 30L21 24H9L15 30Z" fill="black"/>
</svg>
