<svg width="51" height="51" viewBox="0 0 51 51" fill="none" xmlns="http://www.w3.org/2000/svg">
<path d="M40.6725 27.4975C40.7575 26.86 40.8 26.2013 40.8 25.5C40.8 24.82 40.7575 24.14 40.6512 23.5025L44.965 20.145C45.3475 19.8475 45.4537 19.2738 45.22 18.8488L41.14 11.7938C40.885 11.3263 40.3537 11.1775 39.8862 11.3263L34.8075 13.3663C33.745 12.5588 32.6187 11.8788 31.365 11.3688L30.6 5.97126C30.515 5.46126 30.09 5.10001 29.58 5.10001H21.42C20.91 5.10001 20.5062 5.46126 20.4212 5.97126L19.6562 11.3688C18.4025 11.8788 17.255 12.58 16.2137 13.3663L11.135 11.3263C10.6675 11.1563 10.1362 11.3263 9.88124 11.7938L5.82249 18.8488C5.56749 19.295 5.65249 19.8475 6.07749 20.145L10.3912 23.5025C10.285 24.14 10.2 24.8413 10.2 25.5C10.2 26.1588 10.2425 26.86 10.3487 27.4975L6.03499 30.855C5.65249 31.1525 5.54624 31.7263 5.77999 32.1513L9.85999 39.2063C10.115 39.6738 10.6462 39.8225 11.1137 39.6738L16.1925 37.6338C17.255 38.4413 18.3812 39.1213 19.635 39.6313L20.4 45.0288C20.5062 45.5388 20.91 45.9 21.42 45.9H29.58C30.09 45.9 30.515 45.5388 30.5787 45.0288L31.3437 39.6313C32.5975 39.1213 33.745 38.4413 34.7862 37.6338L39.865 39.6738C40.3325 39.8438 40.8637 39.6738 41.1187 39.2063L45.1987 32.1513C45.4537 31.6838 45.3475 31.1525 44.9437 30.855L40.6725 27.4975ZM25.5 33.15C21.2925 33.15 17.85 29.7075 17.85 25.5C17.85 21.2925 21.2925 17.85 25.5 17.85C29.7075 17.85 33.15 21.2925 33.15 25.5C33.15 29.7075 29.7075 33.15 25.5 33.15Z" fill="white"/>
</svg>
